<svg width="129" height="71" viewBox="0 0 129 71" fill="none" xmlns="http://www.w3.org/2000/svg">
<path d="M39.7143 13H18.2857C15.9286 13 14.0214 14.9333 14.0214 17.2963L14.0024 53.8878C14.0013 56.0434 16.2061 57.4966 18.1866 56.6457L27.8158 52.5088C28.5718 52.1839 29.4281 52.1839 30.1842 52.5088L39.8158 56.6468C41.7957 57.4974 44 56.0453 44 53.8904L44 17.2963C44 14.9333 42.0714 13 39.7143 13Z" fill="#0F62FE"/>
<path d="M4.86337 13.296V20.016H11.3914V13.296H4.86337ZM5.19937 23.808V49.152C5.19937 51.696 4.52737 53.088 2.17537 53.088H0.447372V57.792H3.03937C8.41537 57.792 11.0554 54.768 11.0554 49.728V23.808H5.19937ZM59.9869 48.384C67.2349 48.384 71.5069 43.296 71.5069 35.904C71.5069 28.512 67.2349 23.424 60.0829 23.424C56.9149 23.424 54.3709 24.768 52.9789 26.736V13.44H47.1229V48H52.9789V44.976C54.3709 47.088 57.0589 48.384 59.9869 48.384ZM59.1229 43.296C55.1869 43.296 52.5949 40.368 52.5949 35.904C52.5949 31.44 55.1869 28.512 59.1229 28.512C63.0589 28.512 65.6509 31.44 65.6509 35.904C65.6509 40.368 63.0589 43.296 59.1229 43.296ZM89.8744 48.384C97.1224 48.384 101.394 43.296 101.394 35.904C101.394 28.512 97.1224 23.424 89.9704 23.424C86.8024 23.424 84.2584 24.768 82.8664 26.736V13.44H77.0104V48H82.8664V44.976C84.2584 47.088 86.9464 48.384 89.8744 48.384ZM89.0104 43.296C85.0744 43.296 82.4824 40.368 82.4824 35.904C82.4824 31.44 85.0744 28.512 89.0104 28.512C92.9464 28.512 95.5384 31.44 95.5384 35.904C95.5384 40.368 92.9464 43.296 89.0104 43.296ZM116.261 23.424C109.973 23.424 105.893 27.168 105.605 31.968H110.885C110.981 29.808 112.853 27.84 115.973 27.84C119.093 27.84 120.917 29.52 120.917 31.872C120.917 32.832 120.341 33.504 119.141 33.504H114.677C109.253 33.504 105.605 36.432 105.605 41.136C105.605 45.312 108.869 48.384 113.669 48.384C117.125 48.384 119.909 46.8 120.917 44.4V48H126.725V32.448C126.725 26.976 122.405 23.424 116.261 23.424ZM115.061 44.016C112.853 44.016 111.317 42.768 111.317 40.896C111.317 38.784 112.997 37.392 115.493 37.392H120.917V37.776C120.917 41.424 118.757 44.016 115.061 44.016ZM71.9251 56.504V58.936H70.3411V60.584H71.9251V64.184C71.9251 65.976 73.0771 67 74.8371 67H76.1331V65.224H75.0611C74.3251 65.224 73.8931 64.808 73.8931 63.992V60.584H76.1331V58.936H73.8931V56.504H71.9251ZM78.2733 67H80.2253V62.6C80.2253 61.416 81.0093 60.552 82.0973 60.552C83.1053 60.552 83.7933 61.32 83.7933 62.424V67H85.7453V62.008C85.7453 60.12 84.5613 58.808 82.7533 58.808C81.6013 58.808 80.6733 59.304 80.2253 60.184V55.48H78.2733V67ZM93.457 64.312C93.249 65.08 92.593 65.496 91.585 65.496C90.337 65.496 89.505 64.664 89.361 63.368H95.313C95.329 63.208 95.345 62.968 95.345 62.696C95.345 60.776 94.129 58.808 91.425 58.808C88.785 58.808 87.473 60.808 87.473 62.936C87.473 65.048 88.945 67.128 91.585 67.128C93.569 67.128 95.073 66.024 95.377 64.312H93.457ZM91.425 60.28C92.593 60.28 93.297 61.048 93.377 62.072H89.409C89.617 60.856 90.321 60.28 91.425 60.28ZM101.114 67H103.066V62.6C103.066 61.416 103.85 60.552 104.938 60.552C105.946 60.552 106.634 61.32 106.634 62.424V67H108.586V62.008C108.586 60.12 107.402 58.808 105.594 58.808C104.442 58.808 103.514 59.304 103.066 60.184V55.48H101.114V67ZM118.155 58.936H116.187V63.336C116.187 64.52 115.419 65.384 114.315 65.384C113.307 65.384 112.635 64.616 112.635 63.512V58.936H110.667V63.928C110.667 65.816 111.851 67.128 113.675 67.128C114.827 67.128 115.739 66.632 116.187 65.752V67H118.155V58.936ZM124.718 67.128C127.134 67.128 128.558 65.432 128.558 62.968C128.558 60.504 127.134 58.808 124.75 58.808C123.694 58.808 122.846 59.256 122.382 59.912V55.48H120.43V67H122.382V65.992C122.846 66.696 123.742 67.128 124.718 67.128ZM124.43 65.432C123.118 65.432 122.254 64.456 122.254 62.968C122.254 61.48 123.118 60.504 124.43 60.504C125.742 60.504 126.606 61.48 126.606 62.968C126.606 64.456 125.742 65.432 124.43 65.432Z" fill="black"/>
<path d="M28.9785 48.384C36.3225 48.384 41.6025 43.104 41.6025 35.904C41.6025 28.704 36.3225 23.424 28.9785 23.424C21.5865 23.424 16.3065 28.704 16.3065 35.904C16.3065 43.104 21.5865 48.384 28.9785 48.384ZM28.9785 43.296C24.9465 43.296 22.2585 40.272 22.2585 35.904C22.2585 31.536 24.9465 28.512 28.9785 28.512C32.9625 28.512 35.6505 31.536 35.6505 35.904C35.6505 40.272 32.9625 43.296 28.9785 43.296Z" fill="white"/>
</svg>
