<svg width="1440" height="1080" viewBox="0 0 1440 1080" fill="none" xmlns="http://www.w3.org/2000/svg">
<g clip-path="url(#clip0)">
<path d="M840.859 859.381H0V988.974H840.859C876.497 988.974 905.656 959.816 905.656 924.178C905.656 888.539 876.497 859.381 840.859 859.381Z" fill="url(#paint0_linear)"/>
<path d="M460.962 1080H1401.57C1418.69 1074.16 1432.66 1061.36 1440 1044.97V992.38C1429.86 969.752 1407.12 953.879 1380.83 953.879H481.777C446.139 953.879 416.981 983.038 416.981 1018.68C416.981 1047.04 435.458 1071.28 460.962 1080Z" fill="url(#paint1_linear)"/>
<path d="M903.755 590.766L986.652 673.662L1069.55 590.766L986.652 507.87L903.755 590.766Z" fill="#CBDEFD"/>
<path d="M33.3793 1056.6C33.2767 1056.6 33.1741 1056.59 33.0697 1056.58C32.0905 1056.41 31.4353 1055.47 31.6045 1054.5C39.4201 1009.52 50.5945 964.566 64.8199 920.891C65.1277 919.946 66.1465 919.431 67.0879 919.735C68.0329 920.043 68.5513 921.058 68.2417 922.005C54.0685 965.516 42.9355 1010.3 35.1505 1055.11C34.9993 1055.99 34.2379 1056.6 33.3793 1056.6Z" fill="#393939"/>
<path d="M46.3862 910.141C44.9102 914.738 53.6816 921.663 65.9774 925.609C78.2732 929.554 89.435 929.025 90.911 924.426C92.387 919.829 83.6156 912.902 71.3198 908.959C59.024 905.015 47.8622 905.544 46.3862 910.141Z" fill="url(#paint2_linear)"/>
<path d="M68.2686 917.962C68.0814 917.962 67.8906 917.932 67.7016 917.87C66.7584 917.557 66.2472 916.538 66.5604 915.593C74.7198 891.022 83.9808 866.47 94.0842 842.623C94.4712 841.707 95.526 841.28 96.444 841.667C97.3584 842.056 97.7868 843.113 97.3998 844.027C87.3324 867.787 78.1074 892.247 69.9786 916.731C69.7266 917.485 69.0246 917.962 68.2686 917.962Z" fill="#393939"/>
<path d="M70.5727 831.983C69.3433 837.671 80.6761 844.947 95.8843 848.234C111.093 851.521 124.418 849.577 125.647 843.89C126.877 838.202 115.544 830.927 100.336 827.64C85.1275 824.353 71.8021 826.297 70.5727 831.983Z" fill="url(#paint3_linear)"/>
<path d="M98.4297 838.843C98.1921 838.843 97.9491 838.796 97.7169 838.696C96.8043 838.301 96.3831 837.241 96.7791 836.33C105.275 816.662 114.531 797.049 124.288 778.032C124.742 777.15 125.827 776.797 126.711 777.253C127.595 777.706 127.946 778.79 127.491 779.677C117.769 798.62 108.547 818.161 100.082 837.758C99.7887 838.438 99.1245 838.843 98.4297 838.843Z" fill="#393939"/>
<path d="M106.42 759.44C103.502 764.474 112.05 774.88 125.512 782.683C138.975 790.486 152.253 792.731 155.171 787.696C158.089 782.662 149.541 772.256 136.078 764.453C122.616 756.652 109.338 754.407 106.42 759.44Z" fill="url(#paint4_linear)"/>
<path d="M129.975 772.78C129.692 772.78 129.408 772.713 129.139 772.574C128.259 772.112 127.921 771.025 128.383 770.143C135.952 755.721 143.986 741.312 152.266 727.313C152.773 726.458 153.877 726.174 154.732 726.68C155.587 727.184 155.871 728.289 155.365 729.144C147.116 743.09 139.111 757.449 131.571 771.815C131.249 772.43 130.623 772.78 129.975 772.78Z" fill="#393939"/>
<path d="M125.696 702.02C121.784 708.77 133.243 722.722 151.294 733.181C169.342 743.643 187.144 746.653 191.057 739.903C194.969 733.153 183.51 719.201 165.46 708.741C147.411 698.281 129.609 695.272 125.696 702.02Z" fill="url(#paint5_linear)"/>
<path d="M159.502 720.536C159.183 720.536 158.861 720.452 158.569 720.274C157.72 719.759 157.448 718.652 157.964 717.802C163.593 708.534 169.461 699.232 175.405 690.152C175.948 689.321 177.062 689.089 177.896 689.632C178.727 690.178 178.96 691.294 178.416 692.125C172.494 701.168 166.648 710.437 161.042 719.671C160.704 720.229 160.11 720.536 159.502 720.536Z" fill="#393939"/>
<path d="M293.679 1015.45L249.869 985.315C258.586 997.114 273.87 1007.48 293.679 1015.45Z" fill="white"/>
<path d="M242.336 968.875L323.691 1024.84C327.535 1025.75 331.476 1026.58 335.504 1027.33L241.719 962.822C241.738 964.861 241.949 966.879 242.336 968.875Z" fill="white"/>
<path d="M243.211 952.591L356.359 1030.42C359.484 1030.77 362.648 1031.07 365.847 1031.32L244.885 948.114C244.224 949.588 243.668 951.082 243.211 952.591Z" fill="white"/>
<path d="M249.567 940.077L383.515 1032.22C385.944 1032.27 388.388 1032.3 390.845 1032.3C391.169 1032.3 391.489 1032.3 391.813 1032.3L252.457 936.437C251.426 937.634 250.456 938.846 249.567 940.077Z" fill="white"/>
<path d="M259.106 929.754L407.549 1031.86C410.063 1031.73 412.558 1031.57 415.033 1031.38L262.818 926.678C261.526 927.686 260.289 928.712 259.106 929.754Z" fill="white"/>
<path d="M270.92 920.993L429.316 1029.95C431.615 1029.66 433.89 1029.35 436.142 1029.02L275.283 918.369C273.786 919.226 272.331 920.102 270.92 920.993Z" fill="white"/>
<path d="M284.593 913.514L449.212 1026.75C451.321 1026.33 453.408 1025.89 455.467 1025.43L289.523 911.277C287.844 912.004 286.198 912.751 284.593 913.514Z" fill="white"/>
<path d="M299.911 907.166L467.435 1022.4C469.372 1021.86 471.28 1021.29 473.159 1020.71L305.367 905.287C303.514 905.895 301.698 906.521 299.911 907.166Z" fill="white"/>
<path d="M316.788 901.888L484.09 1016.97C485.86 1016.31 487.595 1015.62 489.298 1014.92L322.764 900.369C320.742 900.855 318.751 901.361 316.788 901.888Z" fill="white"/>
<path d="M335.248 897.701L499.18 1010.46C500.775 1009.68 502.332 1008.87 503.847 1008.05L341.768 896.557C339.572 896.917 337.397 897.298 335.248 897.701Z" fill="white"/>
<path d="M355.396 894.676L512.601 1002.81C514.005 1001.89 515.36 1000.94 516.667 999.981L362.52 893.948C360.124 894.164 357.75 894.406 355.396 894.676Z" fill="white"/>
<path d="M377.462 892.967L524.117 993.847C525.292 992.754 526.406 991.643 527.461 990.518L385.31 892.737C382.677 892.784 380.059 892.859 377.462 892.967Z" fill="white"/>
<path d="M401.875 892.876L533.27 983.259C534.145 981.943 534.928 980.608 535.639 979.259L410.676 893.3C407.767 893.12 404.835 892.976 401.875 892.876Z" fill="white"/>
<path d="M429.617 895.073L539.035 970.34C539.435 968.668 539.709 966.978 539.851 965.273L439.971 896.567C436.574 896.011 433.122 895.514 429.617 895.073Z" fill="white"/>
<path d="M478.015 905.85C473.389 904.288 468.565 902.848 463.563 901.537L538.661 953.195C537.903 950.531 536.827 947.916 535.446 945.356L478.015 905.85Z" fill="white"/>
<path d="M1226.01 244.327C1218.8 244.327 1212.93 238.459 1212.93 231.246C1212.93 224.033 1218.8 218.165 1226.01 218.165C1233.23 218.165 1239.1 224.033 1239.1 231.246C1239.1 238.46 1233.23 244.327 1226.01 244.327ZM1226.01 219.967C1219.8 219.967 1214.73 225.027 1214.73 231.248C1214.73 237.469 1219.8 242.528 1226.01 242.528C1232.24 242.528 1237.3 237.467 1237.3 231.248C1237.3 225.029 1232.24 219.967 1226.01 219.967Z" fill="#DAE8FE"/>
<path d="M1226.01 251.986C1214.58 251.986 1205.28 242.681 1205.28 231.246C1205.28 219.811 1214.58 210.506 1226.01 210.506C1237.45 210.506 1246.75 219.811 1246.75 231.246C1246.75 242.681 1237.45 251.986 1226.01 251.986ZM1226.01 212.306C1215.57 212.306 1207.08 220.802 1207.08 231.246C1207.08 241.69 1215.57 250.186 1226.01 250.186C1236.46 250.186 1244.95 241.69 1244.95 231.246C1244.95 220.802 1236.46 212.306 1226.01 212.306Z" fill="#DAE8FE"/>
<path d="M1226.01 260.602C1209.83 260.602 1196.66 247.433 1196.66 231.246C1196.66 215.059 1209.83 201.89 1226.01 201.89C1242.2 201.89 1255.37 215.059 1255.37 231.246C1255.37 247.433 1242.2 260.602 1226.01 260.602ZM1226.01 203.69C1210.82 203.69 1198.46 216.052 1198.46 231.246C1198.46 246.44 1210.82 258.802 1226.01 258.802C1241.21 258.802 1253.57 246.44 1253.57 231.246C1253.57 216.052 1241.21 203.69 1226.01 203.69Z" fill="#DAE8FE"/>
<path d="M1226.01 270.176C1204.55 270.176 1187.08 252.713 1187.08 231.246C1187.08 209.779 1204.55 192.316 1226.01 192.316C1247.48 192.316 1264.94 209.779 1264.94 231.246C1264.94 252.713 1247.48 270.176 1226.01 270.176ZM1226.01 194.116C1205.54 194.116 1188.88 210.771 1188.88 231.246C1188.88 251.721 1205.54 268.376 1226.01 268.376C1246.49 268.376 1263.14 251.721 1263.14 231.246C1263.14 210.771 1246.49 194.116 1226.01 194.116Z" fill="#DAE8FE"/>
<path d="M1226.01 278.793C1199.8 278.793 1178.47 257.463 1178.47 231.246C1178.47 205.029 1199.8 183.699 1226.01 183.699C1252.23 183.699 1273.56 205.029 1273.56 231.246C1273.56 257.465 1252.23 278.793 1226.01 278.793ZM1226.01 185.501C1200.79 185.501 1180.27 206.023 1180.27 231.248C1180.27 256.473 1200.79 276.995 1226.01 276.995C1251.24 276.995 1271.76 256.473 1271.76 231.248C1271.76 206.023 1251.24 185.501 1226.01 185.501Z" fill="#DAE8FE"/>
<path d="M1043.31 272.304C1043.16 271.663 1042.51 271.274 1041.87 271.429C1041.22 271.582 1040.84 272.237 1040.99 272.878C1041.15 273.519 1041.8 273.908 1042.44 273.753C1043.08 273.598 1043.48 272.952 1043.31 272.304ZM969.135 174.569C969.487 173.992 969.304 173.236 968.726 172.886C968.208 172.548 967.513 172.694 967.176 173.21C967.147 173.25 967.118 173.3 967.1 173.349C966.749 173.896 966.904 174.62 967.448 174.978C968.027 175.316 968.784 175.145 969.135 174.569ZM1003.52 226.485C1004.03 226.044 1004.13 225.295 1003.75 224.739C1003.34 224.194 1002.56 224.086 1002.01 224.505C1001.46 224.915 1001.35 225.7 1001.77 226.251C1002.22 226.751 1002.96 226.856 1003.52 226.485ZM1155.89 178.452C1156.94 177.741 1157.23 176.323 1156.54 175.257C1155.91 174.208 1154.55 173.866 1153.51 174.488C1153.47 174.512 1153.43 174.528 1153.4 174.555C1152.36 175.266 1152.07 176.684 1152.76 177.75C1153.43 178.807 1154.84 179.125 1155.89 178.452ZM1109.38 208.717C1110.44 207.999 1110.7 206.566 1109.98 205.517C1109.28 204.484 1107.87 204.199 1106.83 204.881C1105.77 205.553 1105.45 206.953 1106.13 208.013C1106.87 209.061 1108.29 209.363 1109.38 208.717ZM1062.76 238.986C1063.82 238.309 1064.12 236.918 1063.45 235.863C1063.43 235.843 1063.42 235.822 1063.4 235.8C1062.77 234.751 1061.42 234.41 1060.37 235.031C1060.34 235.055 1060.3 235.071 1060.27 235.098C1059.22 235.832 1058.92 237.249 1059.57 238.354C1060.28 239.389 1061.7 239.675 1062.76 238.986ZM1176.15 295.414C1175.88 294.183 1174.67 293.405 1173.43 293.679C1172.2 293.945 1171.42 295.16 1171.69 296.395C1171.96 297.601 1173.14 298.375 1174.35 298.145C1175.58 297.871 1176.38 296.66 1176.15 295.414ZM1121.53 305.57C1121.26 304.339 1120.05 303.561 1118.81 303.835C1117.58 304.101 1116.8 305.316 1117.08 306.551C1117.34 307.757 1118.52 308.531 1119.73 308.3C1120.96 308.032 1121.76 306.815 1121.53 305.57ZM1061.45 117.976C1062.15 116.915 1061.87 115.493 1060.81 114.781C1059.8 114.068 1058.4 114.323 1057.69 115.339C1057.69 115.339 1057.68 115.351 1057.67 115.357C1056.92 116.314 1057.09 117.697 1058.05 118.447C1058.1 118.481 1058.14 118.516 1058.19 118.557C1059.27 119.234 1060.68 118.989 1061.45 117.976ZM1029.97 163.777C1030.65 162.706 1030.4 161.293 1029.39 160.526C1028.33 159.831 1026.91 160.115 1026.2 161.167C1025.49 162.205 1025.75 163.629 1026.79 164.336C1026.8 164.345 1026.82 164.356 1026.82 164.356C1027.84 165.073 1029.24 164.819 1029.94 163.809C1029.96 163.789 1029.97 163.784 1029.97 163.777ZM998.546 209.513C999.259 208.526 999.047 207.153 998.061 206.444C998.034 206.424 998.003 206.401 997.97 206.386C996.961 205.636 995.531 205.857 994.783 206.867C994.757 206.899 994.738 206.926 994.714 206.959C994.002 208.015 994.28 209.45 995.33 210.157C996.386 210.87 997.821 210.591 998.528 209.542C998.537 209.525 998.543 209.518 998.546 209.513ZM1184.68 349.213C1184.57 348.095 1183.59 347.265 1182.47 347.348C1181.35 347.441 1180.52 348.428 1180.61 349.555C1180.69 350.68 1181.69 351.509 1182.81 351.419C1183.93 351.311 1184.76 350.332 1184.68 349.213ZM1087.66 165.76C1088.36 164.849 1088.24 163.553 1087.37 162.797C1086.53 162.088 1085.29 162.189 1084.58 163.021C1084.56 163.048 1084.54 163.066 1084.52 163.093C1083.78 163.942 1083.87 165.233 1084.72 165.967C1084.74 165.976 1084.74 165.982 1084.76 165.992C1085.63 166.68 1086.89 166.585 1087.66 165.76ZM1055.83 203.656C1056.54 202.788 1056.4 201.515 1055.54 200.808C1054.71 200.099 1053.46 200.2 1052.75 201.031C1052.73 201.058 1052.72 201.076 1052.7 201.103C1051.96 201.953 1052.05 203.243 1052.89 203.985C1052.91 203.994 1052.91 203.999 1052.93 204.01C1053.83 204.689 1055.12 204.536 1055.83 203.656ZM1023.95 241.727C1024.7 240.878 1024.61 239.587 1023.76 238.846L1023.73 238.82C1022.94 238.104 1021.72 238.171 1021 238.959C1020.95 239.006 1020.91 239.06 1020.88 239.112C1020.13 239.962 1020.22 241.252 1021.07 241.994C1021.08 242.003 1021.09 242.008 1021.1 242.019C1021.98 242.687 1023.23 242.564 1023.95 241.727ZM1133.66 264.227C1134.64 263.671 1135.01 262.435 1134.47 261.437C1133.96 260.442 1132.74 260.051 1131.75 260.566C1130.75 261.104 1130.34 262.327 1130.81 263.351C1131.36 264.37 1132.62 264.753 1133.66 264.227ZM1089.65 287.114C1090.63 286.646 1091.05 285.475 1090.59 284.495C1090.57 284.463 1090.55 284.425 1090.54 284.386C1090.02 283.39 1088.8 283 1087.81 283.514C1086.82 284.053 1086.4 285.275 1086.88 286.299C1087.42 287.284 1088.65 287.649 1089.65 287.114ZM990.209 139.964C990.553 138.947 990.011 137.851 988.997 137.502C988.954 137.489 988.916 137.471 988.88 137.466C987.82 137.099 986.654 137.664 986.285 138.73C986.278 138.753 986.269 138.778 986.265 138.796C985.973 139.882 986.584 141.008 987.658 141.358C988.715 141.701 989.847 141.113 990.189 140.056C990.194 140.026 990.195 139.995 990.209 139.964ZM975.332 187.292C975.665 186.206 975.08 185.044 974 184.676C972.9 184.361 971.745 184.995 971.431 186.097C971.127 187.142 971.694 188.248 972.72 188.618C973.766 188.993 974.925 188.447 975.299 187.402C975.314 187.373 975.326 187.33 975.332 187.292ZM1227.29 318.307C1228.42 317.642 1228.83 316.219 1228.23 315.052C1227.61 313.902 1226.19 313.457 1225.04 314.06C1223.9 314.714 1223.48 316.157 1224.1 317.315C1224.71 318.465 1226.14 318.91 1227.29 318.307ZM1176.78 345.253C1177.93 344.642 1178.37 343.215 1177.77 342.061C1177.17 340.909 1175.73 340.466 1174.58 341.069C1173.42 341.68 1172.98 343.107 1173.59 344.261C1174.2 345.416 1175.63 345.856 1176.78 345.253ZM1042.17 164.025C1042.52 162.743 1041.81 161.419 1040.55 161.005C1039.27 160.663 1037.96 161.424 1037.62 162.702C1037.3 163.933 1038 165.202 1039.2 165.589C1040.45 165.94 1041.76 165.254 1042.17 164.025ZM1025.55 218.786C1025.9 217.539 1025.22 216.234 1023.99 215.822C1022.73 215.435 1021.41 216.133 1021.02 217.384C1020.63 218.635 1021.33 219.962 1022.58 220.349C1023.83 220.712 1025.15 220.016 1025.55 218.786ZM1136.12 246.101C1136.89 245.061 1136.74 243.598 1135.78 242.728C1134.75 241.942 1133.27 242.12 1132.46 243.131C1131.63 244.105 1131.73 245.576 1132.71 246.415C1132.71 246.415 1132.74 246.434 1132.75 246.443C1133.77 247.286 1135.28 247.131 1136.12 246.101C1136.12 246.101 1136.12 246.109 1136.12 246.101ZM1099.76 290.381C1100.6 289.354 1100.44 287.851 1099.43 287.014L1099.42 287.008C1098.43 286.204 1096.97 286.357 1096.17 287.348C1095.34 288.351 1095.48 289.832 1096.48 290.655C1097.46 291.487 1098.92 291.355 1099.76 290.381ZM1171.71 262.701C1172.54 261.715 1172.41 260.231 1171.42 259.393C1170.43 258.552 1168.95 258.685 1168.11 259.677C1167.3 260.644 1167.39 262.078 1168.33 262.924C1169.33 263.794 1170.84 263.693 1171.71 262.701ZM1133.72 305.239C1134.59 304.243 1134.49 302.738 1133.49 301.869C1132.52 301.043 1131.06 301.122 1130.18 302.036C1129.33 303.05 1129.4 304.546 1130.35 305.464C1131.36 306.304 1132.84 306.194 1133.72 305.239ZM1057.49 228.467C1057.89 227.219 1057.22 225.871 1055.98 225.441C1054.76 225.027 1053.43 225.671 1053.01 226.892C1052.55 228.073 1053.12 229.412 1054.31 229.878C1054.34 229.892 1054.37 229.905 1054.4 229.91C1055.63 230.378 1056.99 229.763 1057.46 228.535C1057.47 228.515 1057.48 228.492 1057.49 228.467Z" fill="#242B3F"/>
<path d="M1305.08 957.737L1321.01 944.044C1323.34 945.202 1325.45 946.703 1327.21 948.643L1310 963.448C1309.03 964.278 1308.92 965.734 1309.75 966.701C1310.58 967.666 1312.04 967.775 1313 966.946L1329.9 952.416C1331.22 954.817 1332.03 957.467 1332.35 960.248L1318.09 972.506C1317.13 973.336 1317.02 974.792 1317.85 975.758C1318.68 976.723 1320.13 976.833 1321.1 976.003L1332.3 966.375C1331.32 974.102 1327.01 982.172 1319.76 988.411C1319.59 988.556 1319.42 988.699 1319.25 988.841C1320.25 990.518 1321.17 992.245 1321.99 994.034C1324.28 999.052 1326.58 1006.69 1324.55 1014.54L1322.32 1013.97C1324.18 1006.76 1322.03 999.671 1319.89 994.991C1319.16 993.377 1318.32 991.811 1317.42 990.279C1310.67 995.274 1302.95 997.776 1295.95 997.632L1306.59 988.484C1307.56 987.655 1307.67 986.198 1306.84 985.232C1306.01 984.267 1304.55 984.157 1303.58 984.987L1289.87 996.775C1287.18 996.039 1284.7 994.826 1282.57 993.123L1298.5 979.425C1299.46 978.595 1299.57 977.139 1298.74 976.172C1297.91 975.208 1296.46 975.098 1295.49 975.928L1279.34 989.815C1277.79 987.748 1276.71 985.356 1276 982.755L1290.58 970.218C1291.54 969.388 1291.65 967.932 1290.82 966.965C1289.99 966.001 1288.54 965.891 1287.57 966.721L1275.04 977.497C1274.71 974.322 1274.74 970.976 1274.97 967.624L1282.83 960.858C1283.8 960.028 1283.91 958.572 1283.08 957.605C1282.25 956.641 1280.79 956.531 1279.83 957.361L1275.63 960.964C1276.82 951.633 1278.71 943.146 1277.51 939.283C1282.36 940.793 1290.85 940.09 1299.76 940.219L1294.33 944.883C1293.37 945.713 1293.26 947.169 1294.09 948.136C1294.92 949.1 1296.38 949.21 1297.34 948.38L1306.48 940.522C1309.8 940.797 1313.07 941.294 1316.11 942.172L1302.08 954.241C1301.11 955.071 1301 956.527 1301.83 957.494C1302.66 958.457 1304.12 958.567 1305.08 957.737Z" fill="#E0EBFE"/>
<path d="M1120.29 743.308C1179.19 743.308 1226.94 695.561 1226.94 636.663C1226.94 577.765 1179.19 530.019 1120.29 530.019C1061.4 530.019 1013.65 577.765 1013.65 636.663C1013.65 695.561 1061.4 743.308 1120.29 743.308Z" fill="#242B3F"/>
<path d="M1131.5 530.607L1040.92 565.464C1039.27 567.297 1037.7 569.197 1036.18 571.141L1138.81 531.653C1136.4 531.23 1133.96 530.865 1131.5 530.607Z" fill="#EEEEEE"/>
<path d="M1161.12 538.131L1023.95 590.918C1023.22 592.452 1022.52 594.003 1021.87 595.576L1165.78 540.198C1164.25 539.472 1162.7 538.783 1161.12 538.131Z" fill="#EEEEEE"/>
<path d="M1015.5 616.944L1184.84 551.782C1183.7 550.917 1182.54 550.081 1181.37 549.261L1016.38 612.75C1016.06 614.14 1015.76 615.537 1015.5 616.944Z" fill="#EEEEEE"/>
<path d="M1013.65 636.577L1199.37 565.113C1198.5 564.15 1197.59 563.218 1196.69 562.287L1013.75 632.682C1013.7 633.978 1013.65 635.272 1013.65 636.577Z" fill="#EEEEEE"/>
<path d="M1015.23 654.89L1210.47 579.762C1209.82 578.725 1209.16 577.688 1208.47 576.676L1014.67 651.25C1014.84 652.471 1015.03 653.684 1015.23 654.89Z" fill="#EEEEEE"/>
<path d="M1019.7 672.094L1218.7 595.517C1218.24 594.406 1217.74 593.316 1217.24 592.225L1018.55 668.68C1018.91 669.83 1019.3 670.962 1019.7 672.094Z" fill="#EEEEEE"/>
<path d="M1026.94 688.228L1224.12 612.352C1223.85 611.172 1223.56 609.996 1223.25 608.832L1025.25 685.018C1025.8 686.098 1026.36 687.171 1026.94 688.228Z" fill="#EEEEEE"/>
<path d="M1037.03 703.267L1226.73 630.271C1226.66 629.017 1226.56 627.768 1226.45 626.524L1034.72 700.3C1035.47 701.308 1036.25 702.288 1037.03 703.267Z" fill="#EEEEEE"/>
<path d="M1050.3 717.085L1226.15 649.416C1226.31 648.086 1226.44 646.75 1226.55 645.406L1047.3 714.38C1048.29 715.3 1049.28 716.202 1050.3 717.085Z" fill="#EEEEEE"/>
<path d="M1067.58 729.356L1221.56 670.105C1222.04 668.662 1222.48 667.204 1222.9 665.735L1063.66 727.011C1064.94 727.819 1066.26 728.6 1067.58 729.356Z" fill="#EEEEEE"/>
<path d="M1091.1 739.229L1210.71 693.207C1211.73 691.569 1212.72 689.907 1213.66 688.212L1085.57 737.497C1087.39 738.122 1089.24 738.7 1091.1 739.229Z" fill="#EEEEEE"/>
<path d="M1120.29 743.308C1123.93 743.308 1127.53 743.122 1131.08 742.766L1183.36 722.647C1186.45 720.378 1189.42 717.953 1192.24 715.372L1119.68 743.293C1119.89 743.293 1120.09 743.308 1120.29 743.308Z" fill="#EEEEEE"/>
<path d="M987.244 754.315C1028.31 754.315 1061.6 721.024 1061.6 679.957C1061.6 638.89 1028.31 605.599 987.244 605.599C946.177 605.599 912.886 638.89 912.886 679.957C912.886 721.024 946.177 754.315 987.244 754.315Z" fill="#F1C21B"/>
<path d="M953.267 613.823C984.474 652.748 1003.38 701.895 1006.64 751.744C1007.24 751.584 1007.83 751.415 1008.42 751.24C1005.06 701.281 986.121 652.046 954.905 612.984C954.351 613.251 953.813 613.542 953.267 613.823Z" fill="white"/>
<path d="M962.894 669.891C966.19 672.584 969.599 675.369 974.587 678.76C974.93 678.992 975.388 678.963 975.695 678.684C976.003 678.407 976.082 677.955 975.884 677.59C966.271 659.66 952.355 644.049 935.644 632.446C935.235 632.16 934.675 632.264 934.391 632.671C934.108 633.079 934.209 633.641 934.618 633.924C950.029 644.623 963.027 658.78 972.401 675.028C969.113 672.649 966.539 670.545 964.033 668.496C960.737 665.803 957.328 663.019 952.34 659.628C948.004 656.681 938.223 654.148 931.752 652.471L930.901 652.249C930.485 652.143 930.042 652.347 929.858 652.741C929.675 653.133 929.799 653.603 930.152 653.855C950.962 668.647 970.4 685.526 987.986 704.061C966.704 695.745 942.894 687.045 918.635 689.171C918.142 689.214 917.773 689.652 917.818 690.147C917.86 690.64 918.263 690.987 918.794 690.964C944.044 688.755 969.019 698.553 991.048 707.194C991.156 707.236 991.265 707.256 991.377 707.256C991.667 707.256 991.949 707.115 992.12 706.861C992.358 706.516 992.322 706.05 992.036 705.742C974.754 687.155 955.624 670.174 935.122 655.216C941.029 656.794 948.01 658.861 951.331 661.118C956.254 664.464 959.629 667.222 962.894 669.891Z" fill="white"/>
<path d="M1048.32 665.224C1048.04 664.961 1047.62 664.907 1047.28 665.083C1032.41 672.958 1019.22 684.1 1008.95 697.433C1010.86 685.827 1016.49 675.03 1021.95 664.558C1026.85 655.171 1031.91 645.463 1034.42 635.076C1034.51 634.685 1034.33 634.278 1033.98 634.08C1033.64 633.884 1033.19 633.942 1032.91 634.224C1021.25 645.76 1011.63 659.007 1004.3 673.639C1003.7 655.817 1004.07 637.783 1004.42 620.307C1004.43 619.857 1004.1 619.468 1003.66 619.399C1003.2 619.329 1002.79 619.601 1002.66 620.033L993.697 650.125L987.62 615.792C987.532 615.303 987.053 614.973 986.578 615.063C986.089 615.15 985.763 615.618 985.849 616.106L992.588 654.184C992.66 654.597 993.006 654.903 993.424 654.926C993.839 654.953 994.217 654.685 994.338 654.285L1002.49 626.913C1002.16 643.507 1001.94 660.513 1002.63 677.307C1002.65 677.721 1002.94 678.07 1003.35 678.153C1003.75 678.229 1004.16 678.029 1004.34 677.655C1011.28 662.945 1020.51 649.593 1031.79 637.918C1029.13 646.891 1024.68 655.434 1020.36 663.726C1014.29 675.363 1008.02 687.394 1006.71 700.65C1006.67 701.055 1006.9 701.436 1007.28 701.58C1007.67 701.721 1008.09 701.595 1008.33 701.265C1018.19 687.654 1031.08 676.188 1045.74 667.971C1036.65 687.315 1024.45 704.853 1009.47 720.136C1009.12 720.489 1009.13 721.062 1009.48 721.409C1009.66 721.58 1009.88 721.666 1010.11 721.666C1010.35 721.666 1010.58 721.576 1010.75 721.396C1026.52 705.317 1039.22 686.764 1048.52 666.253C1048.68 665.901 1048.6 665.487 1048.32 665.224Z" fill="white"/>
<path d="M767.93 754.108L878.657 596.149L989.385 754.108H767.93Z" fill="#DFEBFE"/>
<path d="M878.657 596.149L869.306 609.49L880.301 598.494L878.657 596.149Z" fill="white"/>
<path d="M887.513 608.783L828.279 668.016L780.415 736.297L895.927 620.785L887.513 608.783Z" fill="white"/>
<path d="M903.139 631.074L780.104 754.108H800.521L911.552 643.077L903.139 631.074Z" fill="white"/>
<path d="M918.765 653.365L818.021 754.108H838.438L927.178 665.368L918.765 653.365Z" fill="white"/>
<path d="M934.391 675.655L855.938 754.108H876.354L942.804 687.659L934.391 675.655Z" fill="white"/>
<path d="M950.015 697.946L893.855 754.108H914.27L958.43 709.95L950.015 697.946Z" fill="white"/>
<path d="M965.641 720.237L931.77 754.108H952.187L974.056 732.24L965.641 720.237Z" fill="white"/>
<path d="M981.266 742.528L969.687 754.108H989.384L981.266 742.528Z" fill="white"/>
<path d="M1199.83 1033.36C1199.62 1033.1 1199.23 1033.07 1198.97 1033.28C1198.71 1033.5 1198.68 1033.88 1198.89 1034.14C1199.11 1034.4 1199.49 1034.43 1199.75 1034.22C1200.01 1034.01 1200.05 1033.62 1199.83 1033.36ZM1144.09 1005.04C1144.12 1004.69 1143.87 1004.39 1143.53 1004.35C1143.21 1004.32 1142.93 1004.54 1142.89 1004.85C1142.88 1004.87 1142.88 1004.9 1142.88 1004.93C1142.85 1005.26 1143.08 1005.56 1143.41 1005.6C1143.75 1005.63 1144.05 1005.38 1144.09 1005.04ZM1171.4 1021.2C1171.53 1020.88 1171.41 1020.52 1171.12 1020.34C1170.81 1020.19 1170.42 1020.31 1170.26 1020.63C1170.11 1020.93 1170.23 1021.32 1170.55 1021.48C1170.86 1021.61 1171.22 1021.49 1171.4 1021.2ZM1230.59 965.297C1230.91 964.737 1230.73 964.022 1230.18 963.688C1229.65 963.347 1228.96 963.491 1228.62 964.01C1228.6 964.03 1228.59 964.044 1228.58 964.064C1228.26 964.624 1228.44 965.338 1229 965.673C1229.54 966.008 1230.26 965.84 1230.59 965.297ZM1215.99 989.516C1216.31 988.952 1216.12 988.236 1215.55 987.916C1215 987.599 1214.29 987.779 1213.97 988.326C1213.63 988.87 1213.8 989.582 1214.34 989.919C1214.92 990.232 1215.63 990.056 1215.99 989.516ZM1201.34 1013.76C1201.67 1013.21 1201.51 1012.51 1200.96 1012.18C1200.95 1012.17 1200.94 1012.16 1200.93 1012.16C1200.41 1011.82 1199.71 1011.96 1199.37 1012.48C1199.35 1012.5 1199.34 1012.51 1199.33 1012.53C1199.02 1013.1 1199.19 1013.82 1199.74 1014.18C1200.29 1014.5 1201.01 1014.31 1201.34 1013.76ZM1265.88 1014.43C1265.48 1013.92 1264.76 1013.84 1264.25 1014.24C1263.75 1014.63 1263.66 1015.36 1264.06 1015.87C1264.45 1016.36 1265.16 1016.45 1265.66 1016.08C1266.17 1015.68 1266.26 1014.95 1265.88 1014.43ZM1243.09 1031.23C1242.7 1030.72 1241.97 1030.64 1241.46 1031.03C1240.96 1031.43 1240.87 1032.16 1241.27 1032.67C1241.66 1033.16 1242.37 1033.25 1242.87 1032.88C1243.38 1032.48 1243.48 1031.75 1243.09 1031.23ZM1173.84 958.561C1173.92 957.92 1173.48 957.33 1172.84 957.238C1172.21 957.137 1171.63 957.564 1171.53 958.189C1171.53 958.192 1171.52 958.196 1171.52 958.196C1171.39 958.806 1171.78 959.402 1172.39 959.533C1172.41 959.539 1172.44 959.544 1172.48 959.551C1173.12 959.623 1173.71 959.198 1173.84 958.561ZM1169.58 986.564C1169.66 985.921 1169.23 985.329 1168.6 985.201C1167.96 985.118 1167.37 985.567 1167.27 986.206C1167.18 986.841 1167.62 987.433 1168.25 987.527C1168.26 987.529 1168.27 987.53 1168.27 987.53C1168.9 987.631 1169.48 987.205 1169.58 986.584C1169.58 986.571 1169.58 986.567 1169.58 986.564ZM1165.34 1014.52C1165.45 1013.91 1165.05 1013.33 1164.44 1013.22C1164.42 1013.22 1164.4 1013.21 1164.38 1013.21C1163.75 1013.1 1163.15 1013.51 1163.03 1014.14C1163.03 1014.16 1163.02 1014.18 1163.02 1014.2C1162.93 1014.84 1163.37 1015.44 1164.01 1015.53C1164.65 1015.62 1165.25 1015.18 1165.34 1014.54C1165.34 1014.54 1165.34 1014.53 1165.34 1014.52ZM1281.75 1037.2C1281.46 1036.71 1280.82 1036.55 1280.33 1036.83C1279.84 1037.13 1279.67 1037.76 1279.96 1038.26C1280.25 1038.76 1280.89 1038.92 1281.39 1038.63C1281.88 1038.33 1282.04 1037.7 1281.75 1037.2ZM1196.48 974.648C1196.6 974.074 1196.25 973.507 1195.69 973.354C1195.15 973.213 1194.6 973.537 1194.46 974.077C1194.45 974.093 1194.45 974.106 1194.45 974.122C1194.3 974.677 1194.62 975.249 1195.18 975.397C1195.19 975.398 1195.19 975.398 1195.2 975.4C1195.75 975.521 1196.31 975.195 1196.48 974.648ZM1190.31 999.101C1190.44 998.546 1190.1 997.992 1189.55 997.859C1189.01 997.718 1188.46 998.042 1188.32 998.582C1188.31 998.599 1188.31 998.611 1188.31 998.627C1188.16 999.182 1188.48 999.754 1189.04 999.905C1189.05 999.907 1189.05 999.907 1189.06 999.909C1189.62 1000.02 1190.18 999.662 1190.31 999.101ZM1184.16 1023.65C1184.31 1023.09 1183.98 1022.52 1183.43 1022.37C1183.42 1022.37 1183.41 1022.37 1183.4 1022.36C1182.88 1022.21 1182.34 1022.51 1182.19 1023.03C1182.18 1023.07 1182.17 1023.1 1182.16 1023.13C1182.01 1023.69 1182.34 1024.26 1182.89 1024.41C1182.9 1024.41 1182.91 1024.41 1182.92 1024.41C1183.46 1024.52 1184.01 1024.19 1184.16 1023.65ZM1239.46 1009.57C1239.79 1009.1 1239.68 1008.45 1239.22 1008.11C1238.76 1007.77 1238.11 1007.86 1237.77 1008.32C1237.44 1008.79 1237.52 1009.44 1237.96 1009.8C1238.44 1010.15 1239.11 1010.04 1239.46 1009.57ZM1224.37 1029.85C1224.72 1029.42 1224.65 1028.79 1224.22 1028.44C1224.21 1028.43 1224.19 1028.42 1224.17 1028.4C1223.71 1028.06 1223.07 1028.15 1222.73 1028.61C1222.39 1029.08 1222.48 1029.73 1222.92 1030.1C1223.39 1030.42 1224.03 1030.32 1224.37 1029.85ZM1146.06 984.485C1145.99 983.941 1145.5 983.56 1144.95 983.624C1144.93 983.628 1144.91 983.628 1144.89 983.633C1144.32 983.702 1143.92 984.218 1143.98 984.791C1143.99 984.803 1143.99 984.818 1143.99 984.825C1144.1 985.388 1144.63 985.768 1145.2 985.689C1145.76 985.612 1146.15 985.09 1146.07 984.53C1146.07 984.515 1146.06 984.501 1146.06 984.485ZM1149.76 1009.49C1149.67 1008.92 1149.14 1008.52 1148.57 1008.59C1147.99 1008.69 1147.6 1009.24 1147.7 1009.81C1147.8 1010.36 1148.3 1010.74 1148.86 1010.68C1149.42 1010.62 1149.83 1010.11 1149.77 1009.55C1149.77 1009.53 1149.76 1009.51 1149.76 1009.49ZM1294.42 1013.55C1294.79 1013 1294.67 1012.25 1294.13 1011.85C1293.59 1011.46 1292.84 1011.57 1292.45 1012.11C1292.07 1012.66 1292.2 1013.42 1292.74 1013.81C1293.28 1014.2 1294.03 1014.09 1294.42 1013.55ZM1277.25 1037.14C1277.64 1036.6 1277.53 1035.85 1277 1035.46C1276.46 1035.06 1275.71 1035.18 1275.31 1035.71C1274.92 1036.25 1275.03 1037 1275.57 1037.39C1276.1 1037.79 1276.86 1037.67 1277.25 1037.14ZM1175.24 983.965C1175.11 983.3 1174.49 982.85 1173.82 982.94C1173.16 983.066 1172.73 983.707 1172.86 984.37C1172.98 985.009 1173.58 985.433 1174.22 985.342C1174.87 985.225 1175.32 984.62 1175.24 983.965ZM1179.79 1012.77C1179.67 1012.12 1179.07 1011.67 1178.41 1011.76C1177.75 1011.86 1177.3 1012.47 1177.4 1013.13C1177.5 1013.79 1178.12 1014.25 1178.78 1014.15C1179.43 1014.04 1179.88 1013.42 1179.79 1012.77ZM1236.56 1000.71C1236.69 1000.06 1236.29 999.428 1235.66 999.243C1235.01 999.112 1234.38 999.52 1234.23 1000.16C1234.06 1000.8 1234.44 1001.45 1235.07 1001.61C1235.07 1001.61 1235.09 1001.62 1235.1 1001.62C1235.75 1001.78 1236.4 1001.37 1236.56 1000.71ZM1229.73 1029.1C1229.89 1028.44 1229.48 1027.79 1228.83 1027.63H1228.83C1228.2 1027.48 1227.56 1027.88 1227.41 1028.51C1227.26 1029.15 1227.65 1029.8 1228.29 1029.96C1228.92 1030.12 1229.57 1029.74 1229.73 1029.1ZM1256.57 1000.41C1256.73 999.778 1256.35 999.124 1255.71 998.96C1255.06 998.795 1254.41 999.185 1254.25 999.826C1254.09 1000.45 1254.46 1001.09 1255.07 1001.27C1255.73 1001.44 1256.39 1001.06 1256.57 1000.41ZM1248.61 1028.36C1248.79 1027.72 1248.41 1027.05 1247.76 1026.87C1247.13 1026.71 1246.48 1027.07 1246.28 1027.68C1246.11 1028.34 1246.48 1029.01 1247.12 1029.22C1247.76 1029.38 1248.42 1029 1248.61 1028.36ZM1196.58 1010.11C1196.49 1009.45 1195.88 1008.98 1195.22 1009.06C1194.57 1009.14 1194.1 1009.73 1194.18 1010.38C1194.23 1011.03 1194.79 1011.51 1195.44 1011.46C1195.46 1011.46 1195.47 1011.46 1195.49 1011.46C1196.16 1011.4 1196.65 1010.81 1196.58 1010.15C1196.59 1010.13 1196.59 1010.12 1196.58 1010.11Z" fill="white"/>
<path d="M1364.63 768.955C1362.12 814.498 1357.09 860.677 1352.22 905.337C1345.99 962.545 1339.6 1021.36 1338.36 1080H1340.16C1341.4 1021.45 1347.79 962.685 1354.01 905.531C1358.88 860.85 1363.91 814.644 1366.43 769.054C1374.33 626.081 1352.42 515.844 1299.47 432.047C1299.21 431.629 1298.65 431.501 1298.23 431.766C1297.81 432.032 1297.68 432.589 1297.95 433.008C1350.69 516.479 1372.51 626.368 1364.63 768.955Z" fill="#141E15"/>
<path d="M20.2699 1080C32.6305 1059.94 45.5437 1040.15 58.8763 1020.89C59.4415 1020.07 59.2381 1018.95 58.4209 1018.39C57.6001 1017.82 56.4805 1018.02 55.9153 1018.84C42.1273 1038.76 28.7893 1059.24 16.0435 1080H20.2699Z" fill="#393939"/>
<path d="M1320.08 389.005H1288.18C1290.03 388.42 1291.89 387.932 1293.84 387.639H1314.32C1316.27 388.03 1318.13 388.517 1320.08 389.005ZM1327.29 391.833H1280.96C1279.99 392.224 1279.11 392.711 1278.23 393.199H1329.93C1329.15 392.711 1328.17 392.224 1327.29 391.833ZM1334.02 396.029H1273.65C1272.96 396.517 1272.38 396.907 1271.69 397.395H1335.49C1335 396.905 1334.51 396.418 1334.02 396.029ZM1337.63 400.126H1268.28C1267.79 400.613 1267.21 401.004 1266.72 401.492H1338.32C1338.12 401.101 1337.93 400.613 1337.63 400.126ZM1339.59 404.32H1263.99C1263.6 404.807 1263.21 405.198 1262.72 405.686H1339.98C1339.88 405.198 1339.68 404.807 1339.59 404.32ZM1340.66 408.514H1260.48C1260.09 409.001 1259.79 409.392 1259.5 409.88H1340.85C1340.76 409.392 1340.66 408.904 1340.66 408.514ZM1341.15 412.61H1257.65C1257.36 413.098 1257.06 413.489 1256.87 413.977H1341.34C1341.24 413.586 1341.24 413.098 1341.15 412.61ZM1341.34 416.804H1255.31C1255.11 417.292 1254.82 417.683 1254.63 418.171H1341.34C1341.34 417.683 1341.34 417.292 1341.34 416.804ZM1340.56 421.486C1340.66 421.292 1340.66 421.193 1340.76 420.998H1253.45C1253.26 421.486 1253.06 421.877 1252.97 422.365H1339.97C1340.17 422.073 1340.37 421.78 1340.56 421.486ZM1334.9 425.583C1335.2 425.389 1335.49 425.29 1335.78 425.192H1252.09C1251.99 425.68 1251.89 426.071 1251.7 426.559H1333.25C1333.73 426.17 1334.32 425.876 1334.9 425.583ZM1329.54 429.291H1251.12C1251.02 429.779 1250.92 430.169 1250.92 430.657H1328.17C1328.56 430.168 1329.05 429.68 1329.54 429.291ZM1325.73 433.388H1250.43C1250.43 433.876 1250.33 434.266 1250.33 434.754H1324.76C1325.05 434.363 1325.34 433.876 1325.73 433.388ZM1323.1 437.582H1250.23C1250.23 438.07 1250.23 438.46 1250.23 438.948H1322.42C1322.61 438.557 1322.91 438.07 1323.1 437.582ZM1321.35 441.776H1250.43C1250.43 442.264 1250.53 442.654 1250.63 443.142H1320.96C1321.05 442.654 1321.25 442.166 1321.35 441.776ZM1320.27 445.873H1251.11C1251.21 446.36 1251.31 446.848 1251.41 447.239H1320.08C1320.17 446.848 1320.27 446.36 1320.27 445.873ZM1319.88 450.067H1252.29C1252.48 450.554 1252.58 451.042 1252.77 451.433H1319.88C1319.88 451.042 1319.88 450.554 1319.88 450.067ZM1254.82 455.627H1320.37C1320.27 455.139 1320.17 454.748 1320.17 454.261H1254.14C1254.33 454.651 1254.63 455.139 1254.82 455.627ZM1257.55 459.724H1321.44C1321.35 459.236 1321.15 458.845 1321.05 458.357H1256.58C1256.87 458.847 1257.16 459.335 1257.55 459.724ZM1261.26 463.918H1322.13C1322.13 463.43 1322.13 463.039 1322.03 462.551H1259.79C1260.38 463.041 1260.87 463.529 1261.26 463.918ZM1266.43 467.82C1266.62 467.917 1266.72 468.014 1266.92 468.113H1320.86C1321.15 467.723 1321.44 467.235 1321.64 466.747H1264.77C1265.35 467.041 1265.84 467.528 1266.43 467.82ZM1278.72 472.21H1313.54C1314.91 471.917 1316.17 471.429 1317.44 470.844H1273.35C1275.11 471.429 1276.87 471.917 1278.72 472.21Z" fill="#BFD6FD"/>
<path d="M26.8615 997.691C23.6359 1004.96 36.7813 1017.85 56.2213 1026.47C75.6613 1035.1 94.0357 1036.2 97.2613 1028.93C100.487 1021.66 87.3415 1008.77 67.9015 1000.15C48.4615 991.521 30.0871 990.423 26.8615 997.691Z" fill="url(#paint6_linear)"/>
<path d="M62.7353 1014C62.3771 1014 62.0171 1013.9 61.7021 1013.68C60.8885 1013.11 60.6923 1011.98 61.2629 1011.17C78.0821 987.23 95.9093 963.565 114.251 940.828C114.876 940.052 116.01 939.931 116.782 940.558C117.556 941.182 117.677 942.316 117.052 943.088C98.7587 965.765 80.9783 989.366 64.2077 1013.24C63.8603 1013.74 63.3023 1014 62.7353 1014Z" fill="#393939"/>
<path d="M94.9932 910.566C89.6904 916.493 98.2386 932.794 114.086 946.978C129.935 961.16 147.082 967.855 152.386 961.927C157.689 956 149.141 939.699 133.294 925.515C117.446 911.331 100.298 904.639 94.9932 910.566Z" fill="url(#paint7_linear)"/>
<path d="M123.313 934.353C122.909 934.353 122.506 934.22 122.17 933.943C121.403 933.311 121.291 932.179 121.923 931.41C136.067 914.202 150.818 897.158 165.766 880.749C166.435 880.018 167.573 879.961 168.309 880.632C169.043 881.302 169.097 882.441 168.428 883.175C153.522 899.537 138.811 916.535 124.704 933.694C124.348 934.13 123.831 934.353 123.313 934.353Z" fill="#393939"/>
<path d="M136.746 839.074C129.636 847.019 141.097 868.876 162.346 887.891C183.595 906.907 206.584 915.88 213.694 907.934C220.804 899.989 209.344 878.132 188.095 859.117C166.846 840.101 143.856 831.128 136.746 839.074Z" fill="url(#paint8_linear)"/>
<path d="M177.347 872.638C176.906 872.638 176.467 872.478 176.119 872.154C175.392 871.475 175.352 870.336 176.031 869.611C186.147 858.76 196.58 847.946 207.038 837.47C207.74 836.762 208.879 836.764 209.583 837.466C210.287 838.17 210.289 839.308 209.585 840.011C199.156 850.46 188.752 861.244 178.664 872.066C178.31 872.446 177.829 872.638 177.347 872.638Z" fill="#393939"/>
</g>
<defs>
<linearGradient id="paint0_linear" x1="905.656" y1="924.178" x2="0" y2="924.178" gradientUnits="userSpaceOnUse">
<stop stop-color="#EEEEEE"/>
<stop offset="0.5538" stop-color="#D6D7D8"/>
</linearGradient>
<linearGradient id="paint1_linear" x1="416.981" y1="1016.94" x2="1440" y2="1016.94" gradientUnits="userSpaceOnUse">
<stop stop-color="#0F62FE"/>
<stop offset="1" stop-color="#0154E2"/>
</linearGradient>
<linearGradient id="paint2_linear" x1="46.6526" y1="918.58" x2="90.6447" y2="915.989" gradientUnits="userSpaceOnUse">
<stop stop-color="#0F62FE"/>
<stop offset="1" stop-color="#0154E2"/>
</linearGradient>
<linearGradient id="paint3_linear" x1="70.8685" y1="839.541" x2="125.352" y2="836.332" gradientUnits="userSpaceOnUse">
<stop stop-color="#0F62FE"/>
<stop offset="1" stop-color="#0154E2"/>
</linearGradient>
<linearGradient id="paint4_linear" x1="106.621" y1="774.992" x2="154.969" y2="772.145" gradientUnits="userSpaceOnUse">
<stop stop-color="#0F62FE"/>
<stop offset="1" stop-color="#0154E2"/>
</linearGradient>
<linearGradient id="paint5_linear" x1="125.966" y1="722.871" x2="190.787" y2="719.053" gradientUnits="userSpaceOnUse">
<stop stop-color="#0F62FE"/>
<stop offset="1" stop-color="#0154E2"/>
</linearGradient>
<linearGradient id="paint6_linear" x1="25.1577" y1="1007.89" x2="98.9652" y2="1018.73" gradientUnits="userSpaceOnUse">
<stop stop-color="#393939"/>
<stop offset="1" stop-color="#141E15"/>
</linearGradient>
<linearGradient id="paint7_linear" x1="90.9431" y1="931.437" x2="156.436" y2="941.055" gradientUnits="userSpaceOnUse">
<stop stop-color="#393939"/>
<stop offset="1" stop-color="#141E15"/>
</linearGradient>
<linearGradient id="paint8_linear" x1="131.316" y1="867.056" x2="219.125" y2="879.952" gradientUnits="userSpaceOnUse">
<stop stop-color="#393939"/>
<stop offset="1" stop-color="#141E15"/>
</linearGradient>
<clipPath id="clip0">
<rect width="1440" height="1080" fill="white"/>
</clipPath>
</defs>
</svg>
